# xmcd CD database file
#
# Track frame offsets:
#	150
#	13968
#	25966
#	40270
#	51669
#	65614
#	78115
#	92776
#	108711
#	124490
#	136965
#	149796
#	166931
#	181220
#	194961
#	207726
#	220723
#
# Disc length: 3102 seconds
#
# Revision: 1
# Processed by: cddbd v1.5.2PL0 Copyright (c) Steve Scherf et al.
# Submitted via: CDex 1.70beta2
#
DISCID=150c1c11
DTITLE=Various Artist - CD1 - beginner's guide to blues music
DYEAR=2008
DGENRE=Blues
TTITLE0=Terraplane Blues - Robert Johnson
TTITLE1=Billie's Blues - Billie Holiday
TTITLE2=She's Makin' Whoopee In Hell Tonight - Lonnie Johnson
TTITLE3=John The Revelator - Son House
TTITLE4=Rag Mama Rag - Blind Boy Fuller
TTITLE5=Broke Down Engine - Blind Willie Mc Tell
TTITLE6=Drinkin' Wine Spo-Dee-O-Dee - Stick McGhee
TTITLE7=Blues Before Sunrise - Leroy Carr
TTITLE8=Gimme A Pig Foot And A Bottle Of Beer - Bessie Smith
TTITLE9=Candy Man Blues - Mississippi John Hurt
TTITLE10=Fixin' To Die Blues - Bukka White
TTITLE11=My Handy Man Ain't Handy No More - Alberta Hunter
TTITLE12=Nobody's Fault But Mine - Blind Willie Johnson
TTITLE13=Bumble Bee Blues - Mance Lipcomb
TTITLE14=Last Dime Blues - Barrelhouse Sammy
TTITLE15=Talkin' Blues - Little Brother Montgomery
TTITLE16=Yancey Special - Jimmy Yancey
EXTD=
EXTT0=beginner's guide to blues music
EXTT1=
EXTT2=
EXTT3=
EXTT4=
EXTT5=
EXTT6=
EXTT7=
EXTT8=
EXTT9=
EXTT10=
EXTT11=
EXTT12=
EXTT13=
EXTT14=
EXTT15=
EXTT16=
PLAYORDER=
